Coordinates
version=1
nRows=24
nColumns=22
inDegrees=yes

Units are S.I. units (second, meters, Newtons, ...)
If the header above contains a line with 'inDegrees', this indicates whether rotational values are in degrees (yes) or radians (no).

endheader
time	pelvis_tilt	pelvis_list	pelvis_rotation	pelvis_tx	pelvis_ty	pelvis_tz	hip_flexion_r	hip_adduction_r	hip_rotation_r	knee_angle_r	ankle_angle_r	subtalar_angle_r	hip_flexion_l	hip_adduction_l	hip_rotation_l	knee_angle_l	ankle_angle_l	subtalar_angle_l	lumbar_extension	lumbar_bending	lumbar_rotation
      0.01000000	      3.81599669	     -3.38861315	     -3.35192167	     -1.35186879	      1.02606137	      0.66277612	     -0.06026496	      4.01127583	    -10.72265952	    -15.52676595	     11.97453204	     -2.26481869	      0.06337073	     -1.42079130	     -9.67462221	    -13.99112621	     12.68235649	     -6.32301200	    -12.98938259	      3.37062969	      2.46157236
      0.02000000	      3.81182694	     -3.39313217	     -3.34997099	     -1.35199983	      1.02606015	      0.66261751	     -0.05034723	      4.00798611	    -10.72282933	    -15.51897527	     11.97419378	     -2.26429176	      0.07374513	     -1.41682283	     -9.67573264	    -13.98491021	     12.68264915	     -6.32340975	    -13.00883143	      3.37394819	      2.46112078
      0.03000000	      3.80882883	     -3.39701614	     -3.34437771	     -1.35219286	      1.02605476	      0.66240761	     -0.03058592	      4.00030371	    -10.71660576	    -15.52550966	     11.96481501	     -2.26040939	      0.09638048	     -1.41025137	     -9.66818595	    -13.99747617	     12.67607702	     -6.32807181	    -13.04049577	      3.37807563	      2.45227081
      0.04000000	      3.80202275	     -3.40362463	     -3.34718074	     -1.35236969	      1.02604781	      0.66218979	     -0.01630320	      3.99466855	    -10.71769051	    -15.51297830	     11.96514120	     -2.25973101	      0.11032900	     -1.40421425	     -9.66995837	    -13.98827395	     12.67603987	     -6.32896260	    -13.06611432	      3.38032815	      2.45056082
      0.05000000	      3.79084548	     -3.40179592	     -3.35327765	     -1.35259804	      1.02603176	      0.66193243	      0.01406448	      3.97660541	    -10.70028884	    -15.51563664	     11.95554048	     -2.25170885	      0.14219793	     -1.38750239	     -9.67196956	    -13.99917298	     12.66193633	     -6.34018479	    -13.09544432	      3.37625929	      2.43557636
      0.06000000	      3.78148827	     -3.41047537	     -3.36284017	     -1.35279581	      1.02601930	      0.66167698	      0.03106812	      3.96925797	    -10.70172526	    -15.49833795	     11.95700902	     -2.25057752	      0.15771200	     -1.38035787	     -9.67528965	    -13.98738624	     12.66176859	     -6.34154722	    -13.12381598	      3.37820732	      2.43331322
      0.07000000	      3.74532085	     -3.39936243	     -3.39954306	     -1.35301023	      1.02597234	      0.66144626	      0.08332382	      3.94286896	    -10.64456425	    -15.48793674	     11.95086443	     -2.22478973	      0.20411247	     -1.35459632	     -9.72579456	    -13.97993414	     12.63291148	     -6.37174819	    -13.12251496	      3.35462070	      2.42417135
      0.08000000	      3.73451206	     -3.41049327	     -3.42084349	     -1.35320624	      1.02595988	      0.66116374	      0.10100361	      3.93352725	    -10.64773696	    -15.46789674	     11.95343770	     -2.22330577	      0.21929151	     -1.34600813	     -9.72842949	    -13.96912005	     12.63339588	     -6.37315718	    -13.15187535	      3.36153580	      2.42250620
      0.09000000	      3.67522378	     -3.41240577	     -3.50806248	     -1.35339618	      1.02588363	      0.66098217	      0.17822935	      3.91986612	    -10.54835239	    -15.45866409	     11.95365473	     -2.17230086	      0.27755596	     -1.33469394	     -9.83229233	    -13.95393469	     12.61096010	     -6.42122889	    -13.12318932	      3.34810992	      2.47483240
      0.10000000	      3.64972111	     -3.42544440	     -3.54479431	     -1.35354924	      1.02585621	      0.66071990	      0.20408099	      3.91308769	    -10.54187623	    -15.42731318	     11.95518201	     -2.16215480	      0.29357050	     -1.32925804	     -9.86574958	    -13.92251978	     12.61446003	     -6.42935020	    -13.13015225	      3.35544062	      2.45470797
      0.11000000	      3.59683262	     -3.43828276	     -3.62282064	     -1.35371969	      1.02579804	      0.66052448	      0.26382975	      3.91113007	    -10.46718649	    -15.40009689	     11.93907916	     -2.12323477	      0.34352237	     -1.32914098	     -9.95671952	    -13.90778463	     12.59885790	     -6.45670807	    -13.11050321	      3.35397916	      2.48716029
      0.12000000	      3.56614551	     -3.45477190	     -3.66575897	     -1.35384373	      1.02577216	      0.66026958	      0.29111739	      3.90794612	    -10.46598689	    -15.36384614	     11.94059020	     -2.11543354	      0.35444020	     -1.32665057	     -9.99786532	    -13.86110215	     12.60218023	     -6.46151555	    -13.11029111	      3.36336541	      2.46272011
      0.13000000	      3.50242263	     -3.47229567	     -3.75355936	     -1.35397847	      1.02570790	      0.66008928	      0.35623134	      3.91206248	    -10.38961726	    -15.32822508	     11.91517303	     -2.08308048	      0.40551344	     -1.33250844	    -10.10438446	    -13.83333396	     12.58217559	     -6.47892707	    -13.07374983	      3.36628352	      2.49351168
      0.14000000	      3.44383866	     -3.49055976	     -3.82257840	     -1.35408761	      1.02564593	      0.65987097	      0.41492234	      3.91304974	    -10.35445430	    -15.29530696	     11.91100814	     -2.06242328	      0.44234347	     -1.33596640	    -10.18288379	    -13.78708332	     12.58213410	     -6.48716565	    -13.04000268	      3.37453133	      2.49257624
      0.15000000	      3.38797790	     -3.50882002	     -3.88984427	     -1.35418443	      1.02559328	      0.65964768	      0.46851523	      3.91466414	    -10.32056044	    -15.25979520	     11.89708298	     -2.04804905	      0.47158089	     -1.33837354	    -10.26115372	    -13.73278023	     12.57003007	     -6.49019581	    -13.00855577	      3.38343930	      2.48314451
      0.16000000	      3.33151271	     -3.52663217	     -3.95998386	     -1.35426149	      1.02554022	      0.65942169	      0.52115753	      3.91557200	    -10.28394876	    -15.22408086	     11.88627917	     -2.03667788	      0.49570942	     -1.33923620	    -10.34459379	    -13.67065583	     12.56020336	     -6.49052241	    -12.97454196	      3.39205071	      2.47305908
      0.17000000	      3.29667115	     -3.54696827	     -4.01068111	     -1.35433078	      1.02551179	      0.65914754	      0.55215825	      3.91354562	    -10.28310998	    -15.19428517	     11.88564861	     -2.03402233	      0.49319470	     -1.33817680	    -10.39584291	    -13.59871328	     12.56172771	     -6.49005552	    -12.96526584	      3.40950676	      2.42673032
      0.18000000	      3.22662636	     -3.55864166	     -4.10590384	     -1.35439716	      1.02544514	      0.65894824	      0.61808830	      3.91169132	    -10.19759996	    -15.15479453	     11.85957716	     -2.01807742	      0.52511858	     -1.33382908	    -10.52059701	    -13.52804964	     12.52871119	     -6.48694408	    -12.91458966	      3.40810924	      2.44900222
      0.19000000	      3.16997272	     -3.57295145	     -4.18633673	     -1.35445007	      1.02538271	      0.65870483	      0.67418540	      3.90652989	    -10.14690329	    -15.12841578	     11.86057147	     -2.00571745	      0.54194205	     -1.32906054	    -10.62112406	    -13.45500903	     12.52795436	     -6.48170949	    -12.87834507	      3.41643400	      2.44051807
      0.20000000	      3.11929728	     -3.58628141	     -4.26642158	     -1.35449186	      1.02533170	      0.65845011	      0.72128535	      3.90001974	    -10.09321747	    -15.09837232	     11.85109758	     -1.99197644	      0.55002790	     -1.32125228	    -10.71933895	    -13.37816132	     12.51549884	     -6.47636352	    -12.84773544	      3.42534329	      2.42777452
      0.21000000	      3.07292324	     -3.59853424	     -4.35000863	     -1.35451443	      1.02528626	      0.65819323	      0.76021653	      3.89219345	    -10.03530227	    -15.06432446	     11.84448339	     -1.97628373	      0.55126431	     -1.31145821	    -10.82372698	    -13.29967147	     12.50839906	     -6.47236223	    -12.81933905	      3.43399156	      2.41825824
      0.22000000	      3.03028770	     -3.61107656	     -4.43569666	     -1.35451980	      1.02524481	      0.65793116	      0.79217100	      3.88436074	     -9.97370682	    -15.02687325	     11.83624508	     -1.95806244	      0.54749155	     -1.30092803	    -10.93080500	    -13.22163664	     12.50268464	     -6.46945081	    -12.79291225	      3.44376410	      2.40966529
      0.23000000	      2.99842535	     -3.62843321	     -4.49413085	     -1.35450882	      1.02521238	      0.65761813	      0.81144546	      3.87785877	     -9.96070254	    -14.99210497	     11.83523031	     -1.95164672	      0.53422326	     -1.29230223	    -10.99680681	    -13.14332718	     12.50956996	     -6.46937851	    -12.77576673	      3.46620659	      2.35957441
      0.24000000	      2.95510536	     -3.63695939	     -4.61286356	     -1.35448119	      1.02517744	      0.65740790	      0.83335935	      3.87126994	     -9.83433566	    -14.93667494	     11.80842074	     -1.91754705	      0.52979908	     -1.27960343	    -11.14940867	    -13.07398507	     12.49492345	     -6.47023516	    -12.74425934	      3.46473517	      2.39869074
